<?xml version="1.0" encoding="UTF-8"?><svg xmlns="http://www.w3.org/2000/svg" height="3708.9pt" version="1.1" viewBox="0 0 3308.85 3708.9" width="3308.8pt">
 <g fill-rule="evenodd" id="change1_1">
  <path d="m1650.5 427.2c9.1 0.96 6.8 42.81 7.8 66.02 2.2 48.32 2.6 89.98 3.9 135.92 2.1 4.5 7.9-9.48 13.6-1.95-19 22.58-11.3 64.95-13.6 97.11 7.9 2.05 10.1-18.4 23.3-17.49-4.1 16.69-17 24.45-23.3 38.83 1 31.38 2.9 61.87 1.9 95.17 10.9-5.36 12.5-19.95 25.3-23.31-2.5 20.86-17.6 29-25.3 44.65-1.7 36.13 3.7 68.64 0 100.97 9.2-3.18 15.1-26.31 33-27.17-6.3 20.17-23.4 29.58-33 46.59 0 45.36-0.6 91.26 2 133.96 11.3-9.9 12.8-29.9 31-33-4 22.5-19.9 33.1-31 48.6-2.7 38.8-2.5 80.4-3.9 120.4 9.4-10.1 14.4-24.5 31.1-27.2-6 18.6-21.1 28.1-31.1 42.7v130.1c13.3-15.2 20.6-36.3 42.7-42.7-9.4 24.8-28.8 39.7-42.7 60.2v118.4c12.4-3.8 18.1-31.1 36.9-34.9-6 23.1-23.2 35-35 52.4-1.4 48.1 3 90.3 2 137.9 15.5-15.6 23-39.2 46.6-46.6-9.6 27.9-34.8 40.3-46.6 66 2.1 40.6 2.2 83.2 1.9 126.2 14-8.7 24.7-37.4 46.6-44.7-10.4 26.6-33.2 40.6-44.6 66.1-0.5 56.5 1.4 115.3-2 168.9 10.1-9.3 12.4-26.4 27.2-31.1-3.2 21.5-16.7 32.6-27.2 46.6-0.9 43.8 2 91.4-1.9 132.1 10.4-6 13.9-28.5 27.2-25.3-5.7 18.3-19.3 28.7-27.2 44.7 0.7 38.3-3.5 71.6-2 110.7 8.9-0.9 14.4-21.9 29.2-23.3-5.9 18.7-21.2 28-31.1 42.7 1 50.9-1.2 98.5-1.9 147.6 8 0.2 15.4-16.9 23.3-23.3 8.8 14.7-15.8 27.7-23.3 38.8v149.5c7.5-8.7 13.2-27.1 27.1-23.3-7.6 13.7-14.7 28-27.1 36.9-1.9 19.5-2.4 40.4-5.9 58.3-4.2-29.5-6.2-71.4-15.5-89.3 3.9-4.1 6.8 1.4 9.7 3.8v-141.7c-3.2-10.4-13.9-13.3-13.6-27.2 7.3-6.3 8.4 6 13.6 7.8-4.1-39.7 11.4-95.9 1.9-134-4.3-17.5-24.8-21.7-21.3-36.9 13.8 1.1 14.1 15.7 23.3 21.4-1.5-43 2.9-80 1.9-122.4-4.8-12.6-18.4-16.5-19.4-33 12.1 0.2 12.1 12.5 19.4 17.5-2.7-38.7 10.4-86.9 2-124.3-4.2-18.8-24.5-27.4-23.3-44.7 11.5-3.9 16.1 14.7 21.3 23.3 8.2-48.7 1.9-112 3.9-167-7-14.5-30.4-22.4-27.2-40.7 13.7 1.8 16.6 14.5 25.3 21.3-6.6-36.7 9.9-87.2-2-122.3-7-20.7-32.3-21.2-29.1-40.8 14.3 3.8 19.5 16.7 29.1 25.3 1.5-49.4-2.7-93.1-1.9-141.8-6.1-15.9-24-20-25.3-40.8 12.4 1.9 15.7 12.9 23.3 19.5-3.1-37.7 7.8-83.1 2-116.6-3.1-18-23.7-21.5-21.4-38.8 10.8 1.5 11.9 12.7 19.4 17.5-2.6-38.2 10.3-91.1 2-128.2-4.3-19.2-24.7-25.3-21.4-40.8 13.3 0.4 12.9 14.3 21.4 19.5-4.4-37.5 8.8-77.7 3.9-108.8-3-19.1-23.2-26.8-21.4-44.7 12.9 1.4 12.4 16.2 21.4 21.4-8.8-40.7 6.9-95.2-2-133.96-3.5-15.3-20.6-20.25-19.4-34.97 8.5-3.24 13.3 12.14 19.4 17.5 3.7-33.6-1.4-64.52 0-100.98-5.4-12.06-17.3-17.6-19.4-33.02 10.5-7.01 12.3 9.05 19.4 11.65-0.5-31.15 1.6-64.98-1.9-93.19-7.7-6.52-16.8-11.68-17.5-25.26 12.3-2.55 10.1 9.38 17.5 11.66-0.3-22.3 6.5-45.74 1.9-66.02-3.1-13.6-19.1-19.29-15.5-33.02 10.5-2.73 9 6.55 13.6 9.71 1.1-75.67-2.2-154.73-2-223.3" fill="inherit"/>
  <path d="m2547.7 735.96c3.1-0.56 3.3 1.82 5.8 1.92-10.9 48.65-29.6 89.55-40.8 137.87 3.8 4.32 18.3-7.43 25.2 0-4.4 11.7-25.4 6.9-31 17.47-6.8 31.4-15.1 61.28-25.2 89.32 5.3 3.34 13.6-7 23.2-5.81-2.9 14.56-20.2 14.69-29.1 23.27-7.7 30.5-17.7 58.6-27.2 87.4 8.3 1.5 22.9-16.8 35-11.6-6.2 15.2-23.2 19.6-38.8 25.2-15.3 40.4-29.6 81.8-44.7 122.3 9.7-2.5 19.6-11 31.1-5.8-9.3 10.1-26.8 12.1-37 21.4-10.2 35-23.2 67.3-34.9 100.9 5.9 3.3 14.9-7 25.3-5.8-3.3 12.3-17.7 13.5-29.2 17.5-14.5 37.9-28.7 76.1-42.7 114.6 14.2-3.3 20.8-14.1 38.8-13.6-6.7 15.3-25.3 18.7-42.7 23.3-14.4 32.8-27.6 66.8-40.8 101 16.3-6.5 27.7-17.8 46.6-21.4-9.2 19.9-33.3 24.9-52.4 34.9-15.3 42.3-32 83.3-48.5 124.3 9.1 0.7 19.2-14.4 36.9-11.6-9.3 18.5-34.9 20.7-48.6 34.9-15.1 46.4-36.7 86.3-54.4 130.1 14.3-4.5 21.2-16.4 40.8-15.5-7.7 14.9-25.5 19.8-42.7 25.2-16.9 36.8-33.2 74.3-50.5 110.7 10-1.7 25.9-14.2 44.7-13.6-12.6 15.3-39.9 15.8-52.4 31.1-13.7 38.8-30.8 74.1-46.6 110.7 8.3 1.8 18.6-11.1 33-9.7-6.1 14.6-23.7 17.7-38.9 23.3-15 36.1-30.4 71.8-44.6 108.7 14.9 0.7 17.6-10.9 31-11.7-3 15.8-18.7 18.9-33 23.4-19.5 38.7-32.9 83.5-50.5 124.2 16.6 0.1 26.5-15.8 36.9-15.5-3.2 18.2-19.6 23.1-38.8 25.2-18.9 36.1-33.5 76.6-48.6 116.6 7.4 0.2 20.3-10.9 29.2-15.6 6.3 12.7-19.8 25.1-35 29.1-20.6 48.1-39.6 97.7-62.1 143.7 9-1.3 24.1-13.4 38.8-15.5-7.1 17.5-28.1 21-44.6 29.1-20.2 16.7-28.7 45.2-52.5 58.3 12.5-32.8 51.5-45.2 44.7-91.3 4-4 9.8 0 9.7 5.9 20-42.8 36.9-88.7 56.3-132.1-0.4-9.9-9.7-19.3-3.9-29.1 7.3-0.2 6.7 7.6 7.8 13.6 17.8-36.6 30.7-78.1 48.5-114.6-2.2-9.2-14.1-17.5-9.7-27.2 9.3-0.2 8.7 9.5 11.7 15.5 19.7-35.9 31.3-80 48.5-118.4-6.4-10.6-14-29.7-11.6-42.7 12.3 2.5 10.4 19.3 15.5 29.1 6.4-16.8 15.2-35 23.3-54.4 7.2-17.1 21-39.7 21.4-54.3 0.3-11.7-12.5-20.3-5.9-33 9.7 0 6.3 13.2 11.7 17.4 18.4-34 31.9-72.9 48.5-108.7-3.1-13.3-18.3-24-15.5-36.9 11.6 2.6 11.9 16.6 19.4 23.3 17.4-37 35.6-73.2 50.5-112.6-3.5-16.3-22-34.9-13.6-50.5 10.9 7.2 10.9 25.4 17.5 36.9 9-18.2 19.1-39.5 29.1-62.2 15.4-34.5 33.1-62.2 15.6-99 11.8-0.2 10.3 12.9 15.5 19.4 11.9-17.3 17.4-40.1 27.2-64.1 13.4-32.8 33.6-60.7 17.5-99 10.9-0.6 10.9 9.8 13.5 17.5 8.5-13.7 13.7-31.8 21.4-50.5 6.9-16.7 19.7-36.2 19.4-50.5-0.2-13.6-15.1-20-9.7-34.9 9.6 2.6 8.9 15.7 15.6 21.3 5.5-29.9 38.2-71.4 38.8-104.8 0.3-17.1-13.7-29-13.6-48.6 12.1 4.7 13.6 20.1 17.5 33 17.7-31.4 27.3-71 40.8-106.8-1.7-11.1-12.2-22.2-7.8-33 9.3 0.4 9.7 9.7 11.6 17.5 16.8-34.4 26.5-75.9 42.8-110.7-3.3-13.9-15.2-28.5-11.7-42.7 11.4 2.2 10.1 17 15.5 25.2 3.5-25.5 31.6-65.2 31.1-93.2-0.3-16.82-16.1-25.67-11.6-42.69 10.9 3.26 12.1 16.33 15.5 27.18 14.2-35.88 29.3-78.53 21.3-120.4 8.2-0.35 6.3 9.26 9.8 13.61 15.5-47.31 32.1-93.43 46.6-141.74" fill="inherit"/>
  <path d="m737.89 2058.3c-7.34-22.4-18.9-40.6-17.48-71.8 12.66 22.9 18.94 52.2 25.25 81.5 32.17 30 62.12 62.2 93.2 93.2-2.38-22.5-12.09-46.9-5.82-71.8 9.97 18.5 13.11 54.2 11.66 77.7 36.97 34.2 69.01 73.3 104.85 108.7 0.86-11.2-0.81-19.9-1.94-29.1 15.68-1.5 13.19 24.7 7.76 33 30.38 36.9 64.63 70 99.03 102.9 1.1-8.9-3.4-12.1-1.9-21.4 15.2 0.3 10.7 20.4 13.6 33 40.7 46.1 85 88.5 130.1 130.2 0.1-9.6-1.7-21.1 7.7-21.4-5.3 42.1 36.6 65.9 62.2 89.3 23.3 21.4 39.7 43.8 60.2 58.3 0.8-16.4-3.4-27.7-3.9-42.7 20.8 6.7 8.3 33.3 13.6 52.4 4 14.5 19.1 18.2 23.3 29.1-12.3 3.2-18.4-16.6-29.1-21.4-15.4 2.3-43.7 2.8-48.6-11.6 10.1-3.1 25.9 3.5 38.8 3.9-34.7-40.4-86.3-80.7-124.2-124.3-6.6 7.6-36.6 7.8-40.8-3.9 9.4-5.4 21.9 0.8 33 0-37.7-42.6-90.6-86.7-130.1-134-10.1 3.7-30.3 2.3-36.9-3.9 0.3-11 18.6-4.2 25.2-3.8-25.5-32.1-64.41-67.6-95.11-101-15.14-1-36.38 4-40.78-7.8 2.74-7.6 18.41-2.3 27.19-3.9-26.1-31.5-64.05-67.9-97.09-99-16.01-2.7-37.04-0.5-44.67-11.6 10.58-3.4 23.59-1.3 33.02 1.9-27.03-33.2-59.07-61.3-89.33-91.3-15.3 1.1-42.93-0.5-58.25-5.8 10.34-9.3 33.97-1.1 48.54-1.9-26.54-35-70.57-69.3-102.91-104.9-15.76 4.5-40.33 1.7-50.49-5.8 8.69-9.9 26.41 1 40.78-2-28.23-30-57.54-58.9-87.39-87.3-16.12-2.7-36.77-0.8-48.54-7.8 5.2-8 26.29-3 34.95-2-26.06-28.2-62.77-62.7-95.14-91.2-11.7 4.4-27.49 0.1-34.95-5.8 2.76-9.4 18.16-1 25.23-2-22.84-25.7-59.72-54.2-87.37-81.5-13.43-0.2-27.51 0.3-34.96-5.9 1.1-8.1 18.69-2.8 23.31-1.9-41.06-45.7-102.81-87.5-145.64-137.9 51.61 41 100.55 84.6 151.46 126.2-1.32-8.3-5.36-17.7-1.94-25.2 13.48 6.1 6.12 21.2 9.71 31.1 6.35 17.5 30.09 31.1 44.66 44.6 16.64 15.5 31.53 29.6 46.6 40.8-2.77-10.6-11.01-22.4-5.83-34.9 9.32 7.7 13.09 30.5 13.6 40.7 30.85 33.3 66.25 61.9 99.03 93.2 2.16-16.7-11.52-26.8-5.83-40.7 11.85 5.8 16.12 28.8 11.65 44.6 32.38 30.4 60.66 64.9 95.16 93.2 0.9-15.1-7.34-31.4-3.89-42.7 14.67 12 6.51 33.6 11.66 48.6 5.34 15.4 32.54 35.4 50.49 52.4 22.18 21 40.25 39.8 54.36 52.4" fill="inherit"/>
  <path d="m2273.9 2332.1c5.5-3.1 21.7-3.1 27.2 0-3.9 11.7-24.9 6.3-36.9 9.7-30.6 29-57.8 61.3-87.4 91.3 8.9-2.2 31-5 36.9 1.9-9.3 14.7-31.6 4.2-44.7 7.8-11.8 3.2-41.4 38.7-50.5 48.5-17.7 19.3-32.5 37.2-46.6 52.5h15.6c-2.1 10.9-17 9-27.2 11.6-29.1 26.6-55.9 55.5-81.6 85.5 11.1-0.1 23.2-1.2 25.2 7.7-46.6-3.3-57.1 29.6-83.4 46.6 11-28.4 47.2-48.5 56.3-85.4 8.2-0.6 2 10.3 1.9 13.6 21.1-21 40.6-43.6 62.2-64.1 1-15.1 0.3-32 7.7-40.8 8.9 3.9 1.3 22.6 0 29.1 35.8-28.2 71-73.9 106.8-108.7 0.2-11.4 0.7-22.6 5.8-29.1 5.6-0.2 5.4 15.2 2 17.5 28.5-21.4 58.7-57.8 85.4-87.4 1.3-11-2.5-27.2 2-35 8.7 1.7 5.3 15.4 7.7 23.3 31.6-22.8 61.7-63.9 95.2-91.2 1.3-10.4 2-21.3 7.7-27.2 7.4-1.6 2.5 9.2 3.9 13.6 29.3-28.4 58.8-56.5 87.4-85.5 3.5-13.1-7.3-28.5 2-34.9 8.6 1.7 4.9 15.7 5.8 25.2 28.1-24.3 64.1-57.5 93.2-87.4 0.7-14.7-3-34.1 5.8-40.7 7.9 3.7 2.1 21.1 3.9 31 25.2-20.7 58.3-50.5 83.5-77.6-0.3-9.5-6.5-29.3 1.9-35 10.6-0.2 4 16.7 5.9 25.3 28.4-13.7 55.5-45.4 81.5-68 1.2-11.8-9-34.7 5.8-36.9 4 5.8 1.1 18.3 2 27.2 28.4-24 59-45.9 83.5-73.8-2.7-9.5-2.7-23.5 0-33 9.3 1.6 6.7 15.3 7.7 25.2 21.5-12.8 48.1-37.4 68-58.2 0.6-10.5-2-24 3.9-29.2 8.7 0.3 5.8 12.3 7.8 19.5 52.2-37.1 100.4-95 157.2-134-44 47.8-92.3 91.5-139.8 135.9 9.5 0.2 20.5-1 27.2 1.9-4.9 14.9-27 5.4-36.9 7.8-25.9 6.4-48.9 49.7-73.8 62.1 10.3 0.1 23.9-5 33.1 0-8.9 16.8-27.5 4.3-40.8 7.8-13.1 3.4-25.9 23.9-36.9 33-14.5 11.9-27.8 18.9-36.9 31.1 11-2.9 27.7-9.4 40.8-3.9-12.5 12.1-37.6 11.6-56.3 17.5-23.9 23.3-49.7 44.8-73.8 68 13.5-0.7 25.4-6.9 36.8-3.9-10.2 19.5-35.9 11.1-52.4 17.4-25.6 9.9-50.8 52.4-73.8 68 6.8-3 17.7-1.7 27.2-1.9-9.2 15.1-27.7 9.6-40.8 15.5-19.1 8.7-35.8 31.4-52.4 46.6-17.7 16.3-34.2 32.5-48.5 48.5 9.4-2.6 29.5-3.4 38.8 0-5.2 14.9-32.2 7.9-50.5 9.8-27.6 26.8-55.4 53.2-81.5 81.5 8.7-3 26.2-3 34.9 0-8 11-37.9 9.7-48.5 11.7-32 30.8-64 61.6-93.2 95.1" fill="inherit"/>
  <path d="m1503 2621.4c8.4 10.1-1.6 32.7-5.9 42.8-9.9-11 2.1-32.7 5.9-42.8" fill="inherit"/>
  <path d="m1402 2726.3c0.5-2.4 3.9-2 3.9 0 37.5 29.2 78.6 54.7 106.8 93.2-14.8-0.8-19.7-11.4-29.1-17.5-14.8-0.8-30.9-0.2-38.9-7.7 5.2-9.4 18.1 1 29.1-2-25.4-20.4-48.6-43.3-71.8-66" fill="inherit"/>
  <path d="m1536 2755.4c17.5 9.1 27.6 25.4 34.9 44.7-15-11.5-27.7-25.3-34.9-44.7" fill="inherit"/>
  <path d="m1924.3 2895.2c34-8.1 71.5-12.7 110.7-15.5 11.7-7.7 20.2-18.6 36.9-21.4 4.1 9.9-14.8 12-19.4 19.5 31.3-2 65.6-8.9 99-13.6 12.3-1.8 27.7 1.6 38.9-2 13.1-4.2 18.2-22 33-19.4 4.5 8.6-13.4 9.4-15.6 17.5 42.1-11.2 93.8 3.1 132.1-9.7 15.4-5.2 22.7-24.1 40.8-19.4-3.9 11-19.9 9.9-27.2 17.4 36.2 3.2 78.7-4.1 120.4-1.9 11.4-5.1 22.2-20.1 36.9-15.5 0.2 9.2-9.5 8.6-15.6 11.6 30.8 5.5 75.2-2.7 101 7.8-32.2 8.8-71.8-1-108.7 3.9 2.7 13.4 19.4 12.9 21.3 27.1-14.5 3.3-24.6-12.2-31-23.3-36.6-2.4-84-0.1-120.4 3.9 5.9 10.9 27 6.7 29.1 21.4-16.4 1.9-33.7-11.5-44.7-21.4-44.1 1.2-83.7 6.9-128.1 7.8-4 7.3 23.4 10.1 19.4 17.5-10.7 8.9-26.5-9.6-35-15.6-46 3.2-87 11.4-132 15.6 3.4 8.2 18.6 4.6 17.5 17.4-17.6 1.4-23.3-9-33-15.5-42.4 2.3-81.7 7.7-120.4 13.6-1.8 7 15.3 11.8 15.5 23.3-17.5 0.7-20-13.6-29.1-21.4-36.3 3-72.7 3.9-102.9 5.9 28.9-12.3 63.8-3.5 91.2-13.6 14.4-5.3 19.8-23.2 36.9-21.4-2.3 10-13.3 11.3-17.5 19.4" fill="inherit"/>
  <path d="m1503 2912.7c-4.8-9.5-16.7-11.8-19.4-23.3 20.1 1.4 27.3 21.9 42.7 29.1 8.1 3.9 18.5-0.9 23.3 9.7-23.2-8.1-27.5 15.6-44.7 11.7-1.7-11.4 11-8.4 13.6-15.5-32.8-3.5-62.2-10.3-93.2-15.6-13.8 7.6-21.7 21.1-40.8 23.3-2.3-10.6 17.2-14.8 23.3-23.3-47.1-11.1-104.1-12.3-155.3-19.4-12.5 9.7-27.4 26.8-46.6 23.3 6.9-11.2 21.9-14.3 33-21.3-46-9.7-102-9.4-151.5-15.6-15.5 6.6-25.8 28.3-44.6 25.3 3.6-13.2 18.6-15.1 27.1-23.3-35.6-9.1-81.97-7.3-124.23-9.7-12.24 6.1-24.33 21.9-38.84 19.4 3.31-10.3 14.6-12.6 23.3-17.5-25.78-8.5-66.36-2.3-95.15-7.8-2.88 12-9.69 20.1-23.3 21.4-5.21-10.4 12.03-13.4 15.53-21.4-57.68-2.9-115.1 4.9-172.82 7.8 15.7-14.2 44.82-13.1 69.9-15.5 28.22-2.8 58.94-1.5 87.39-2 2.41-4.4-9.91-10.7-9.71-19.4 11.81-2.3 18.71 15.9 29.14 21.4 27.58 2.1 59.16 0.3 85.43 3.8-3.52-10.7-14.61-13.8-17.48-25.2 19.29 0.1 19.55 19.3 33.01 25.2 46.66 1.3 92.43 3.5 135.93 7.8 0.9-10-17.8-17.1-21.4-29.1 21.8 0.9 26.1 19.2 36.9 31.1 54.7 1 103.1 8.2 155.4 11.6-2.3-12.8-31.9-24.9-31.1-40.8 20.6 9.9 31 29.9 48.6 42.7 47.9 3.2 93.4 8.9 139.8 13.6 2.6-5.9-13.7-9.5-11.7-21.3 10.9-0.8 19.3 16.6 29.1 23.3 30.8 2.2 56.6 9.4 85.5 13.6 1.6 0.3 1.9 1.9 3.9 1.9" fill="inherit"/>
  <path d="m763.14 763.14c21.5 38.02 39.79 79.29 54.36 124.26 4.74 3.98 5.33-12.71 15.54-9.7-14.49 42.9 12.03 73.14 21.36 108.74 7.13-7.76 5.24-24.55 9.71-34.97 13.37 10.55 1.28 38-3.88 48.53 12.39 33.6 25.61 66.3 36.89 101 7.86-9.6 3.83-31.1 13.59-38.8 7.9 13.1-0.21 40.2-9.71 48.5 12.96 38.8 28.68 74.9 40.79 114.6 11.77-7.7 7.6-31.3 21.35-36.9 5.1 19.6-8.52 36.6-15.53 50.5 13.22 39.8 27.31 78.8 40.78 118.4 5.4-8.8 6.56-21.9 13.61-29.1 10.1 16.1-7.43 29-7.79 44.7-0.45 19.8 15.29 44.5 23.29 66 8.8 23.5 16 45.8 23.3 66 8.7-10.1 2.2-35.4 19.4-36.9-2.7 19.9-6.6 38.7-11.6 56.3 15.6 43.9 32.4 86.7 46.6 132.1 6-19.2 5.1-45.4 17.5-58.3 4.1 15.6-3.8 51.6-13.6 66 15.1 44.5 31.2 87.9 46.6 132.1 8-17.2 11.7-38.8 27.2-48.6 1.7 27.5-21 43-19.4 69.9 1.1 20.5 16.8 49 25.2 71.9 9.1 24.7 19.3 47.3 25.2 69.9 6.4-8.5 0.5-29.3 13.6-31.1 1.6 9.8-0.4 31.6-9.7 36.9 15.7 53 36 101.2 54.4 151.5 8-12.7 4-37.4 17.5-44.7 2.7 18.3-5.9 40.3-11.7 56.3 20.7 58.3 46 112 66 170.9 9.6-4.7 5.1-23.4 11.7-31.1 12.4 9.7 0.6 33.9-5.9 42.8 15.7 40.7 34.3 78.4 48.6 120.3 5.7-10.5 1.8-30.5 9.7-38.8 10.6 6.8-1 34.6-3.9 46.6 10.3 30.5 23.9 57.7 36.9 85.5 7.7-7.3 4.5-25.4 15.6-29.2 5 15.2-5.8 28.5-11.7 38.9 26.7 61.3 53.6 122.4 79.6 184.4-13.6-9.6-18.7-27.8-27.2-42.7-9.8-9.6-27.7-11.1-31-27.2 11.7-0.8 15.1 6.9 23.3 9.7-15.2-39.8-34.5-75.5-48.6-116.5-9.2-7.6-25-8.6-27.2-23.3 7.1 2.7 14.1 5.4 19.5 9.7-19-36-27.2-82.8-58.3-106.8 0.4-9.3 6.9 1.5 11.7 0-12.5-37.3-29.8-69.9-42.8-106.8-11.9-6.2-27.5-8.7-31-23.3 12.5-0.2 16.7 7.9 25.2 11.7-13.4-39.5-32.7-82.6-48.5-122.4-5.8-14.4-8.6-30.9-15.6-40.7-8-11.2-24.9-11.9-27.2-27.2 6.3-3.9 12.7 5.9 19.5 7.8-18.6-48.2-36.5-96.9-54.4-145.7-11.7-9.7-31.4-11.3-35-29.1 10.6 3.6 16.7 11.8 27.2 15.5-9.2-43.8-32-90.9-46.6-135.9-14-13.2-41-13.3-46.6-35 16.4 4.4 26.3 15.2 40.8 21.4-14.9-47.9-31.5-94.1-48.6-139.8-8.7-9.4-26.7-9.5-29.1-25.3 8.9-4.8 14.9 7.9 23.3 9.8-15-41.4-31-81.7-44.6-124.3-16.6-8.7-33.2-17.4-42.8-33 16.4 1.1 23.9 11 35 17.5-13.6-45.3-32.6-85.2-46.61-130.1-9.04-11.7-26.8-14.7-33.02-29.2 12.31 0 17.84 6.8 25.24 11.7-1.47-19.2-11.44-38.7-19.42-60.2-7.74-21-10.39-46.7-21.35-62.2-11.79-16.6-33.81-12.9-40.78-33 15.17 1 21.91 10.5 33.01 15.6-6.64-34.2-25.84-72.6-36.89-108.8-7.8-9-23.04-10.6-25.25-25.2 11.96-1 12.91 9.1 21.36 11.6-10.68-31.4-24.03-60.1-33-93.2-11.88-6.2-28.25-8-31.08-23.3 8.89-4.82 14.9 7.84 23.31 9.7-9-27.87-19.66-54.09-29.14-81.52-10.09-6.73-22.26-11.41-25.24-25.26 7.08-5.16 9.6 7.64 17.48 7.79-14.08-48.72-32.04-93.55-50.48-137.87" fill="inherit"/>
  <path d="m1638.9 2891.4c-14.7 2.4-9.1-15.6-21.4-15.6-5.7 8.3 3.4 19.7-3.9 25.3-8 3.5-17-8.4-17.4 0-0.6 12.9 18.8 5.7 19.4 17.4-0.5 9.3-13.4 6.1-11.7 17.5 9.2 7.4 22.6-1.3 33.1 3.9-1.9 13-0.9 30.7 0 50.5 9.9 218.9 4.9 472.5 7.7 702.9 20.2-4.7 15.3-28.1 15.6-42.7 3.5-236-8.8-485.1-7.8-710.7 5.9-8.3 17.1-11.4 25.2-17.5-8.7-9.3-18.9-17.7-13.6-31-4.9-2.2-9.2 5.8-11.6 0 0.1-5.9 5.2-16.7 0-21.4-7.3 4.4-3.6 19.7-13.6 21.4zm-157.3 99c35.7-16.1 76.7-26.9 106.8-48.6-1.8-11.5 3.3-16 3.9-25.2-49.7-32.5-105.1-59.3-163.1-83.5 2.6 8 10.9 23.5 1.9 31.1-38-20.9-77.2-50.9-120.4-60.2 3.6 8.8 16.1 17.8 7.8 27.2-51.8-18.2-98.1-41.8-155.4-54.4-1.7 5.7 11 13.6 7.8 27.2-45-1.6-95-30.1-149.5-35 2.3 10.5 13.2 22.3 3.9 33-66.43-11.9-140.48-16.2-219.45-15.5-5.28 6.7 9.33 6.5 5.83 17.5-54.46 7-104.66 18.3-161.16 23.3-3.87 2.7 7.82 6.3 3.87 15.5-52.09 24.3-125.16 27.6-188.35 40.8 60.22 0 128.39 0 178.64 3.9 8.99 7.1-11.41 16.3-1.94 17.4 27.16 2.7 54.39 6 85.44 3.9 39.97-2.7 79.59-22.3 99.03 0-11.15 11.5-25.06 20.3-29.12 38.9 66.82-3.5 141.18-15.1 201.91-13.6-6.36 17.5-29.1 18.7-32.98 38.8 50.38-13.4 112.98-31.6 170.88-36.9 9.3-0.8 26.9-3.3 33 5.8-13.4 17.7-35.2 26.9-44.7 48.6 55.4-26.7 142.2-31.6 211.7-40.8 8.3-1.1 18-9.4 25.2 0-3.2 20-25 21.6-31 38.8 58.2-9.2 118-37.2 174.8-34.9-3.6 15.9-22.6 26.6-25.3 36.9zm240.8-54.4c28.3 21.5 73.3 36.8 106.8 46.6-9.9-9.8-26.6-22.3-25.3-36.9 58.7 3.6 114.8 26.3 172.9 36.9-6-17.9-29.4-18.5-31.1-40.8 77.1 6.5 176.6 17.6 236.9 40.8-10.7-20.4-33.3-28.8-44.7-48.5 70.6-9 145.9 21 203.9 31-5-18.9-28.8-19-33-38.8 65 3.4 135.2 10.8 202 15.5-3.6-19.7-20.1-26.6-29.1-40.7 25.6-18.6 61.7-0.5 100.9 1.9 32.1 2 61-1.8 85.5-3.9 2.6-3.3-11-10.8-3.9-19.4 53.2-0.7 121.7-0.6 178.6-3.9-66.2-10.1-138.6-14.1-188.3-40.8-4.6-8.6 11.5-12.3 1.9-13.6-43.4-0.7-85.5-16-126.2-19.4-10.2-0.8-26.4 4.6-33-5.8-2.5-9.4 11.3-9.1 5.8-15.5-79.4-2.4-157.2 7.2-221.4 13.6-6.2-12.5 4.2-20.5 5.9-31.1-26.2 4.8-54.3 10.2-79.7 17.5-24.6 7.1-49.1 23.5-69.9 15.5-4-12.4 13.6-21.9 5.9-25.2-27.4 7.6-53.9 15.7-79.7 25.2-25.6 9.5-49.4 25.4-75.7 27.2-4.3-10.6 7.8-16.8 9.7-27.2-46.8 14.6-81.5 41.5-122.3 62.1-5.2-10.9 0.9-22.3 3.9-31-52.1 19.1-98 47.8-143.7 69.9-15.7 7.6-33.7 12.1-48.6 23.3 5.8 11.1 22 11.7 35 15.5zm-1607.8-1427.2c23.62 27.5 55.16 51.7 67.97 89.3-2.7 5.1-10.04 5.5-15.54 7.8 29.75 36.9 80.52 52.8 106.79 93.2-4.5 11-24.05 7-33 13.6 42.07 24.6 82.69 50.6 112.62 87.4-4.74 11.4-18.97 13.3-31.07 17.4 15.04 14.1 37.88 28.3 62.13 44.7 21.52 14.5 77.68 38.9 62.15 66-12.71-6.4-28.69 2.4-46.61 2 42.61 36.3 100.49 57.4 135.94 100.9-14.7 8.2-59.5-4.7-73.8 13.6 48.72 24.1 83.79 62.8 126.23 91.3 10.44 7 26.29 10.5 33 23.3-8.69 9.4-28.15 8.1-40.77 13.6 36.12 20.2 70.1 46.1 102.92 66 10.89 6.6 25.45 12.3 31.06 25.2-3.4 12.8-22.35 10.1-31.06 17.5 21.86 12.9 46.76 24.6 71.84 35 25.19 10.4 53.42 19.1 71.84 36.9-2.36 11.2-20.35 6.8-27.18 13.6 24.08 14.6 49.04 29.8 75.73 42.7 27.34 13.2 57.79 21 81.56 38.8-1.77 9.3-10.18 11.9-21.36 11.7 50.54 37.5 113.34 62.7 161.14 102.9-1 8.7-10.5 8.9-15.5 13.6 47.5 19.8 96.6 49.2 145.6 68 11.7 4.4 30.7 0.1 35 17.4-5.9 11-26 7.7-31.1 19.4 27.4 7.8 52.8 18.3 91.3 33 11.6 4.5 82 29.2 81.5 42.8-0.5 14.1-23.8 13.6-31 23.3 67.7 40.3 139.5 76.6 211.6 112.6 0.4-7.7 13.1-10.2 19.4-5.8-75.1-89.9-163.9-167.8-225.2-269.9-25.8-43.1-56.5-76-89.3-108.8-10.6-1.4-7.7 10.5-19.5 7.8-19.6-39.3-32.8-85-54.3-122.4-1.2 8-1.8 16.4-11.7 15.6-27-67.5-54.4-134.6-99-184.5-7 9.3-9.1 23.3-19.4 29.1-29-44.2-36.4-109.8-69.9-149.5-4.5 11.1-8.9 22.2-21.39 25.3-32.69-56-71.19-106.2-112.63-153.4-5.07 8.5-9.1 18-19.4 21.3-28.5-36.9-51.57-79.2-79.62-116.5-5.67 7.3 0.54 26.4-11.66 27.2-28.43-26.6-40.1-69.9-69.9-95.2-4.38 13.8 0.91 37.2-13.6 40.8-15.08-32.1-37.6-64.7-60.19-89.3-7.23-7.9-17.07-22.9-23.3-19.4-1.48 14 4.35 35.4-7.77 38.8-13.48-10.8-15.71-29.9-27.18-44.6-7.37-9.5-19.94-19.2-29.13-27.2-9.78-8.5-21.2-21.6-29.13-19.5-4.9 12.6 0.39 35.4-13.6 38.9-21.58-28.9-43.1-57.9-67.96-83.5 0.79 7.3 6 25.3-1.94 29.1-18.79-11.4-31.97-33.3-48.55-50.5-7.93-8.2-16.61-15.4-25.24-23.3-7.7-7-14.1-20.8-23.3-19.4 0.04 9.8 0.77 20.2-5.82 23.3-32.6-21.1-52.52-54.9-83.5-77.7 0.6 11-1.25 19.5-9.71 21.4-70.28-33.9-123.96-94.8-192.24-124.3 29.23 23.6 51.269 53.1 75.73 81.6zm2961.2 36.9c-8-2.3-6-14.7-9.7-21.4-16.8 18-34.6 33.2-50.5 50.5-9.2 10-17.9 24.4-33 27.2-3.7-5.9-4.4-15-3.9-25.2-15.2 12.7-34.4 27.7-50.5 44.6-16 17-26.4 41.6-48.5 50.5-5.9-6.9 1.9-24.6-1.9-29.1-23.2 27.3-44.4 56.5-68 83.5-11.2-6.4-7.5-27.5-11.6-40.8-17.9 12.7-41.9 27.5-58.3 48.5-11.1 14.2-12.9 35.3-29.1 44.7-9-6.6-4.9-26.2-5.9-40.8-16.7 11.2-32.3 29.8-46.6 48.6-15 19.8-23.7 43.7-38.8 62.1-11.4-6.1-7.9-27.1-11.6-40.8-31.1 24.6-40.3 71.1-71.9 95.2-10.1-2.9-3-22.9-11.6-27.2-26 39.4-49.3 81.4-79.6 116.5-9.1-4.5-12.1-15.2-19.5-21.4-9.8 19.3-27.4 31.8-40.7 48.6-26.3 32.9-45.7 71-71.9 104.8-9.9-4.9-15.7-14.1-19.4-25.2-17.8 19-26.4 47.3-36.9 73.8-10.5 26.6-16.7 56.6-35 75.7-8.1-8-10.5-21.9-19.4-29.1-42.9 51.6-69.4 119.5-99 184.5-9.6 0.5-6.7-11.4-11.7-15.6-19.2 39.7-32.5 85.3-54.3 122.4-10.2 1.7-7.3-9.6-17.5-7.8-17.6 22.7-40 39-56.3 60.2-12 15.5-21.9 31.9-33 50.5-41.8 69.7-94.5 125-147.6 182.5-33.8 36.6-72.5 76.9-106.8 108.7 95.8-34.9 178.8-82.6 260.2-132-9.4-5.7-32-9.5-31.1-23.3 0.8-11.4 25.6-16 38.9-21.4 44.6-18 96.1-42.3 133.9-52.4-4.8-12.7-27.6-7.3-31-21.3 6.4-14.8 22.9-11 34.9-15.6 49.6-19 100.1-47.4 145.7-69.9-8.5-1.2-14.8-4.6-15.6-13.6 50.2-37.2 110.3-64.5 161.2-101-11.6 0-21-2.2-21.4-13.5 52.5-27.2 112.9-46.4 157.3-81.6-10.4-3.1-25.9-1.3-27.1-13.6 42.7-29.1 102.9-40.7 143.7-71.8-11.9-4.4-29-3.4-31.1-17.5 41-34.1 90.8-59.4 134-91.3-15.7-2.4-34.2-2.1-40.8-13.6 20-17.7 45.6-26.4 66-42.7 30.7-24.4 56.7-53.8 93.2-71.8-9.3-1.1-16.6-8-29.1-9.8-17.4-2.4-39 8.7-44.7-3.8 37.6-40.7 93-63.6 135.9-99.1-19.1 0-33.9-7.9-48.5-1.9-6.9-7.1-1.5-14.5 0-23.3 42.5-28.7 86.5-55.9 126.2-87.4-12.1-4.7-28.4-5.3-31.1-19.4 31.6-35.1 72.5-60.9 112.7-87.4-12.3-3.3-30.2-1-33-13.6 28.3-37.7 76.7-55.3 106.8-91.3-5.5-2.9-15.1-1.7-15.6-9.7 36.2-66.7 98-118.2 141.8-170.8-69.4 36.8-120.2 92.1-192.3 126.2zm-1435-1258.3c-7.3 1.49-9.2-2.37-15.5-1.94 5.2 44.64 11.1 98.9 9.7 143.67-10.6 0.43-18.6-20.88-23.3-13.57-12 36.18 2.6 73.72 5.8 108.74 1.3 13.28 4.8 33.27-7.7 42.7-16.7-2.42-33.3-31.32-40.8-29.12 6.9 29-2.7 66.36 0 100.98 1.2 15.8 12.1 33.6-3.9 40.78-16.2-3.26-18.4-20.4-33-25.23-0.4 62.55 18.3 116.3 25.2 165.05-23.6 9.73-42.5-21.85-52.4-19.42 7.7 30.44 33.5 99.08 38.8 139.81 2.4 17.87 3.7 36.13-7.7 40.78-20.9 8.57-36.3-11.55-50.5-15.55 1.4 25.44 14.5 50.03 23.3 85.43 5.3 21.2 24.5 79.9 3.9 85.5-16.8 4.5-24-20.4-46.6-15.6 6 38.2 38 105 42.7 151.5 1.7 17.2 0.4 38.5-13.6 40.8-14.4 2.2-23.7-20.2-31.1-15.6 10.9 38.4 29.6 78.9 42.8 116.5 3.8 10.9 12.6 28.4 0 36.9-15.8-1-22-11.7-37-13.6 19.7 38.8 18.9 99.5 29.2 145.7 3.4 15.5 14.3 34.3 1.9 46.6-18.8-0.7-26.3-12.6-42.7-15.6-1.4 31.6 11.6 49.7 17.5 71.9 4.3 16.1 7.1 31.5 11.6 46.6 8.8 29.3 25.7 58.3 19.5 89.3-9.7 2.7-28.6-0.9-37-5.8 18.7 36.4 33.6 78.6 48.6 122.3 9.2 26.9 33.4 64.2 11.7 79.6-11.1-1.8-18.5-7.4-33.1-5.8 29.9 36.9 34.7 96.6 46.6 149.5 3.5 15.3 18.6 30.9 7.8 46.6-11.3 0.4-18.6-3.4-31.1-1.9 12.7 57.2 35.4 109.4 52.5 163.1 5.2 16.6 18.5 38.8 5.8 56.3-10.7 6.1-19.8-4.2-29.1-5.8 24.2 51.5 39.2 112.2 54.3 172.8-1.4 8.8-15.8 1.7-15.5 7.8 8.6 19.4 7.8 38.4 9.7 62.1 3 37.3 6.1 84.4 13.6 110.7 10.8 38.2 22.9 70.8 23.3 104.9 7.9-3.8 6.3-17 15.5-19.5 9.1-3 11.1 6.3 15.6 2 13.5-34.7 39.5-88.7 36.9-132.1-2.7-44.6 11.4-99.6 17.4-135.9-2.5-0.9-15.5 1.2-15.5-7.7 16-59.2 30.1-120.1 54.4-170.9-9.7 1.9-14.3 9-27.2 7.7-15.6-14.8-3-38.6 1.9-54.3 18.2-57.7 42.3-109.2 54.4-167-12.8-2.5-23.8 5.1-33 0-6.8-16 6.4-29.8 9.7-44.7 12.2-53.9 16.5-111.7 46.6-149.5-14.5-1.6-21.9 4-33 5.8-19.3-15.6-3.2-40.6 5.8-64.1 18.8-48.6 36.5-104 52.5-137.8-7.7 6.2-26.9 8-36.9 5.8 5.5-72.9 43-130.4 50.5-207.8-17.1 3-24.3 15.9-44.7 15.5-5-28.7 7.4-63.1 11.6-97 4.4-34.8 8.8-69.1 21.4-95.2-15.6 1.9-21.4 13.5-38.8 13.6-8.7-10.9-2.3-27.3 1.9-38.8 14.5-40.2 33.1-76.8 42.7-116.5-8 1-16.7 18.2-33 17.4-14.2-6.6-13.2-29.4-11.6-42.7 5.9-49.3 34.5-103.6 42.7-149.5-22-0.6-28.6 14.1-48.6 15.5-14-9.2-6.5-29.8-3.8-42.7 9.6-46 27.7-88.58 31-128.14-12.1 9.83-26.9 17.06-50.5 15.52-16.9-38.55 5.5-75.54 13.6-112.63 5.5-24.96 11.1-49.28 19.4-69.88-11.3 3.66-32.4 32.53-54.3 19.41 13.2-50.18 25.6-101.21 27.2-163.12-15.4 4.73-16.5 23.66-35 25.25-12.4-10.11-3.1-26.69-1.9-42.72 2.6-36.34-5.3-77.55-2-102.93-3.4 14.23-18.6 28.85-33 15.55-3.6-38.63 5.3-81.44 2-126.21-4.1-4.48-9.4 14.05-17.5 5.81-9.5-18.88-6.4-45.51-5.8-69.91 0.5-24.01 3.1-49.95 3.8-73.8-3.6-0.45-11.8 6.85-17.4-1.92-1.5-80.25 5.6-153.97-5.9-225.27-13.3 72.77-6 166.18-23.3 234.98zm250.5 2547.6c37-19.4 74.6-48.2 120.4-52.4 5.5 7.3-1.3 15.9-3.9 21.4 49-15.1 93.6-44.9 153.4-42.8 1.3 13.6-8 16.6-11.6 25.3 47.8-11.9 100-39.5 153.4-33 0.3 12-4.3 19-7.8 27.2 66.3-9.2 157.4-21.2 227.2-7.8 5.2 5.4-1.8 9.6-1.9 15.5 53.3 7.6 103.9 17.8 159.2 23.3 4.9 8.6-1.9 14.1-5.8 19.5 51.1 16.8 118.7 25.5 180.6 34.9 19 2.9 43.9 0.1 54.3 17.5-18 13.5-51.6 7.8-81.5 7.8-48.4 0-93.9 0.7-141.8 1.9-3.7 4.1 13.8 6.4 5.9 15.5-57.2 12.1-130.7 8.6-184.5-3.9 3 11.2 29.6 32.2 17.5 52.5-52.9-4.9-124.9-7.2-180.6-15.6-1.8 8.6 18.9 20.9 9.7 36.9-30.8 1.5-60.7-12.2-91.3-19.4-31.7-7.5-64.2-9.9-97.1-17.5 4.4 13.9 36.5 26.8 27.2 54.4-33.7-6-69.2-20.8-110.7-27.2-39.7-6.1-82.2-10.4-120.4-19.4 3.5 11.4 28.1 18.5 29.2 38.8-58.7 6.2-118.4-18.3-169-33 2 14.3 27.3 22 29.2 42.7-33.9-3.6-69-15.6-101-31-21.8-10.5-55.7-35.8-89.3-25.3 13.6 202.6 3.8 443.4 13.5 652.5 1.7 35.1 1.1 78.4-7.7 104.8-10.5 3.2-16.8 10.4-31.1 9.8-12.7-241.8 5.1-513.8-9.7-755.4-3.8-1-22.1 1.7-27.2-3.9-39 24.4-88.2 49-139.8 54.4 3.5-21.2 22.8-26.4 31.1-42.7-52.3 13.6-111.3 39.4-170.9 33 2.8-20.5 20.9-25.7 31.1-38.9-39.3 8.6-81.3 13.1-122.4 19.4-40.7 6.3-77 21.2-110.7 27.2-7.1-27.3 18.1-38.7 29.2-54.3-33.8 7-66.9 9.9-99.1 17.4-30.5 7.2-60.42 20.9-91.23 19.5-7.33-16.2 7.23-26.2 11.65-36.9-38.6 7.4-85.75 6.5-128.16 9.7-20.18 1.5-39.96 9.6-56.3 3.9-5.14-21.9 11.82-37 21.35-50.5-54.93 11.9-128.36 16.3-186.41 3.8-5.7-9.1 4.54-9.9 7.77-15.5-17.28 0.9-38.86-0.4-54.38-1.9-58.26-5.8-122.89 9.1-170.88-5.8 7.26-19.4 34.42-16.7 52.44-19.5 58.69-9 127.39-18.1 180.59-33 4-6.1-11.28-11.4-3.89-21.3 54.46-5.8 105.27-15.2 157.28-23.3 5.63-3.3-6.87-10.6 0-15.6 68.95-13.1 160.07-1.8 225.27 7.8 2.3-5.6-7.8-15.4-5.8-27.2 52.4-6.2 105.3 20.1 151.4 33 2.6-6.5-12.6-11.9-9.7-25.2 58.8-1.8 104.4 26.3 151.5 42.7 3.5-3.1-9.3-14.1-2-21.4 44.8 4.5 83.6 31.6 118.5 52.5 1.1-5.2-5.4-20.4 5.8-23.3-22.5-10.6-47.7-18.4-62.1-36.9 3.2-14.2 19.8-15.2 29.1-23.3-33.1-13.7-88.3-37.3-132-54.4-15.1-5.9-40.6-6.7-42.8-19.4-2-12.1 13-18.1 21.4-21.4-55.6-29.8-123.3-47.6-172.8-83.5-1.3-10.3 7.7-10.4 11.6-15.5-49.1-38.3-111.97-62.8-161.15-101 1.72-9.9 10.72-12.6 21.36-13.6-50.68-25.7-110.26-42.5-147.58-81.5 2.69-10.3 12.54-13.4 25.25-13.6-49.03-23.5-105.07-39.9-145.64-71.9 3.34-13.5 21.94-11.7 33.02-17.5-25.47-19.8-69.44-44.3-106.81-67.9-9.85-6.3-30.75-16.9-29.12-27.2 2.08-13.1 20.95-10.5 31.06-11.7-25.05-19.2-50.99-38.2-75.73-58.2-25.04-20.3-55.32-33.1-75.72-58.3 14.06-13.1 34.01-20.3 60.19-21.3-10.29-12.5-34.68-25.7-62.13-44.7-15.39-10.6-65.34-30.1-62.15-46.6 3.44-17.7 37.12-9.5 54.37-17.5-21.32-14.9-45.08-30.3-67.95-46.6-21.73-15.4-50.3-25.8-60.21-48.5 4.6-9.7 18.38-10.1 29.14-13.6-11.23-19-34.91-34.7-56.32-50.5-21.48-15.8-48.89-25.6-60.2-44.7 2.79-11.4 21.79-6.7 33.02-9.7-2.1-18.2-31.21-26.5-54.37-44.6-17.65-13.8-66.08-46.2-31.07-60.2-38.36-58.4-87.185-104.7-135.94-153.4-11.64-11.7-25.495-26.6-29.12-44.7 23.012 1.6 41.504 17.7 60.195 29.1 18.641 11.4 39.422 21.1 58.265 33 36.49 23.1 64.7 60.9 106.79 75.8 4.89-4.9-1.24-20.7 5.83-23.3 36.08 17.6 56.42 51 85.44 75.7 1.06-9.3 1.34-19.4 7.77-23.3 19.02 9.2 33.3 25.3 48.54 38.8 15.3 13.7 27.56 30.9 40.78 46.6 5.16-3.8 1.85-16.2 9.71-17.4 33.25 17.2 47.58 53.4 73.78 77.6 1.16-10.4 0.16-23.1 5.83-29.1 14.23-3.9 26.98 11 36.9 19.4 18.3 15.6 37.37 31.1 48.55 54.4 4.39-6.6 2.44-19.5 9.7-23.3 21.66 2.2 34.89 24.7 48.55 40.8 14.23 16.8 29.04 35.3 38.83 54.4 5.15-9.8 3.68-26.1 13.6-31.1 31.16 23.8 47.09 62.9 67.96 97.1 4.97-7.3 5.29-19.3 13.59-23.3 37.95 28.7 52.38 80.9 85.44 114.5 5.18-4.5 5.6-13.8 11.66-17.4 20.04 11.3 36.38 31.3 50.49 48.5 25.58 31.3 48.53 65.9 67.95 102.9 9.55-4.6 8.85-19.6 17.45-25.2 21.9 9.8 33.2 42.3 42.8 66 10.5 26.2 20.6 53.5 29.1 79.6 10-4.2 7.2-21.2 17.5-25.2 21.5 17.8 39.3 42.4 54.3 67.9 18.4 31.4 34.6 64.9 46.6 104.9 4.3 5.7 10.2-9.3 15.6-2 25.2 32.4 35.6 79.6 54.3 118.5 27.6-13.3 33.3 20.1 50.5 29.1-11.5-31.1-33.4-51.9-46.6-81.5 0.3-8.8 9.8-8.4 15.5-11.7-19.5-32.5-32.9-65.9-58.2-91.2-12.4-12.4-33.2-17.9-35-38.9 8-5.6 23.7-3.5 36.9-3.9-15.9-27.2-41.8-51.4-64-77.6-10.9-12.8-19.6-28.2-31.1-40.8-11.6-12.6-27.6-23-31.1-40.8 8.6-6.9 24.9-6.1 36.9-9.7-34-40.5-75.4-90.3-116.5-130.1 3.7-11.9 16.4-14.7 31.1-15.5-28.7-39.3-63.15-72.8-89.34-114.6-9.52-7.3-21.61-12.1-21.37-29.1 11.96-4.7 51.61-9.1 60.21 1.9-0.3 15.3-26.51 4.6-38.84 7.8 18.65 19.8 34.34 46.5 54.34 69.9 18.8 22 44.2 43.9 52.5 73.8-4.3 6.1-17.5 3.3-27.2 3.9 12.6 18.3 36.4 43.2 56.3 66 8.4 9.6 16.7 21.5 29.1 34.9 7.7 8.4 30.8 22.8 29.1 33-2.4 14.8-27.4 9.9-38.8 13.6 30.9 40.5 65.8 80.3 99 120.4 10.3 12.4 24.7 24.4 27.2 40.8-3.7 8.6-19.4 5.2-31 5.8 32.7 29.4 65.4 75.7 83.4 126.3-3.9 3.8-7.6 7.8-15.5 7.7 44.8 70.2 88 151.5 135.9 221.4 49.6 72.2 122.4 128.9 176.7 201.9 6.6-2.5 8-10.1 19.5-7.7-29.1-93.3-50.2-194.6-81.6-285.5-3.4-3.3-5.1 0.3-11.6-1.9-13-38.9-31.3-72.3-35-120.4-6.3-5.1-14.4 3.1-21.4-2-15.5-50.8-32.4-105-25.2-172.8-8.3-4.9-9.9 13.4-21.4 11.7-14.7-48.7-14.7-113.6-11.6-174.8-8.8-1.6-13.9 17.1-31.1 13.6 0-1.9-2.4-1.5-3.9-1.9-9.5-51.3-1.3-117.6 0-170.9-14.1-1.1-24.4 28.6-36.9 29.1-20.7-33.1-20.5-101.9-21.3-161.2-8.7-0.2-14.1 19.6-31.1 17.5-8.5-54.3-2.2-123.3-7.8-180.6-10.1 3.8-17.9 16.9-33 9.7-5-37.9-4.6-95.7-21.3-128.1-14.2 0.7-15.2 14.6-33 11.6-9.9-47.1-5.2-108.7-21.4-149.5-7.2-2-10.7 16.4-25.2 13.6-5.5-50.9-18.3-94.4-33.1-135.9-15.3 5.4-16.3 25.1-40.7 21.3-10.5-15.3-1.6-34.9-3.9-54.3-4.1-34.5-12.3-71.7-17.5-103-13.8-1.2-19.2 22.1-38.8 21.4-9.4-10.2-5.2-27.6-5.9-40.8-1.6-36.2-9.6-72.3-17.43-100.9-13.91-0.1-17.2 26.6-38.84 25.2-7.34-52.2-7.49-111.6-23.3-155.34-13.47 3.62-18.48 25.18-33.01 21.36-10.01-3.23-4.78-15.04-5.83-21.36-4.97-30.36-13.92-61.92-19.42-91.27-10.45-3.57-17.36 22.45-29.12 17.47-17.47-31.71-21.93-76.46-36.9-110.69-2.56-3.69-4.17 9.96-13.59 5.84-7.95-11.48-11.66-27.18-15.54-42.73-1.58-4.73-10.23 3.85-13.58-1.95-18.69-45.38-39.91-88.23-66.03-126.21 3.1 19.6 9.33 42.78 15.54 67.96 7.59 30.75 31.12 65.13 3.89 79.62 3.73 19.57 13.12 33.47 11.64 58.25-2.84 5.59-8.97 7.86-13.59 11.66 8.34 29.2 27.58 47.5 31.07 81.56-5.55 5.43-15.44 6.57-27.19 5.81 21.12 44.28 38.6 92.16 58.25 137.87-17.15 11.85-37.3-7.76-54.36-13.57 11.12 36.22 27.8 68.52 44.66 102.92 6.71 13.7 17.96 29.8 13.59 46.6-12.03 6.2-23-3.7-34.95-3.9 10.54 26.4 24.81 56.2 40.77 83.5 7.96 13.6 23.41 22.6 25.25 38.8-10.37 7.6-28.72-4.7-42.72-5.8 21.23 36.4 35.14 75.2 56.31 110.7 8.09 13.6 22.84 25.9 21.37 50.5-10.34 4.5-23.88 5.9-38.85 5.8 28.48 47.9 76.76 76 95.15 134-7.4 11.4-28.87 8.7-44.65 11.6 15.02 25.5 38.61 45.4 56.31 69.9 17.2 24 40.02 47.1 44.66 77.7-10.88 4.1-23.87-2.2-38.84 0 11.47 21.5 27.81 44.9 44.66 68 15.81 21.6 38.12 42.7 42.72 67.9-26.15-14.8-41.51-42.5-58.25-66-16.89-23.7-38.69-47.3-46.61-77.7 7.3-6.9 22.57-5.8 36.9-5.8-12.91-24-29.42-49-48.55-71.8-18.46-22-44.53-41.9-52.43-71.9 11.65-5.8 29.39-5.5 46.61-5.8-17.46-51.2-69.17-84.9-97.1-132 3.72-15.1 27.92-9.7 42.74-13.6-14.86-27.1-26.61-55.8-40.79-83.5-13.2-25.8-38.95-48.7-36.89-81.6 9.4-4.8 21.65 2.4 31.07 3.9-7.91-22.6-28.12-46.1-40.79-71.8-7.86-16-16.64-33.9-17.47-50.5 16.67-0.5 27.87 4.5 40.78 7.7-19.71-50.2-51.82-98.2-62.14-151.43 22.41-6.64 35.44 12.32 54.37 15.55-9.69-19.44-17.5-42.4-27.18-66.04-9.05-22.07-24.15-43.1-27.19-67.96 5.95-5.05 15.6-6.39 27.19-5.81-9.77-30.37-27.37-52.92-34.96-85.46 3.14-3.99 9.74-4.5 17.48-3.87 1.09-25.68-11.57-37.62-11.65-62.14-0.96-8.72 10.08-5.46 13.6-9.71-8.6-26.19-13.43-55.88-21.36-83.51-7.78-27.05-21.01-54.79-15.54-81.54 24.62 9.13 37.97 41.62 50.48 64.07 13.91 24.96 26.39 51.15 38.84 75.75 1.65 5.03 8.52-3.74 11.65 1.92 8.39 10.39 9.18 28.39 15.53 40.78 1.96 4.3 6.69-4.78 13.6-1.92 18.51 30.67 26.89 71.47 36.9 110.66 12.41-3.11 13-18.05 27.18-19.41 19.82 28.71 21.98 75.11 31.07 114.58 49.51-67.36 52.87 75.11 60.19 130.09 9.68-0.3 13.46-24.8 27.19-23.3 19.33 2 33.03 102.1 31.03 143.7 14.9-3.3 16.6-19.7 31.1-23.3 24.9 20.1 18 65.5 25.3 102.9 2.8 14.6 10.7 42.1 3.8 64.1 10.5-1.9 19.8-21.6 35-25.3 23.3 32.5 31.9 79.5 40.8 126.3 7 5.6 7.8-11.6 19.4-7.8 22.2 37.4 21 98.1 27.2 151.5 5.5 2.2 20.8-12.8 29.1-7.8 24.1 28.3 19.2 85.6 29.1 128.1 11.2-2.4 11.9-15.3 27.2-13.6 9.3 52.4 12 116.8 9.7 174.8 7.8 0 14.6-17.7 31.1-15.5 11.3 46.9 3.9 112.6 15.5 159.2 14.6-7.4 20.2-23.8 38.9-27.2 10.9 49.1-1.9 117.2 3.8 178.7 9.8 1.9 15.2-17.2 33.1-13.6 10.3 45.1-1.9 119.6 11.6 167 3 2.8 17.3-7.5 23.3-2-0.1 65.5 8.2 122.6 23.3 172.9 5.8 0.5 17.2 0.6 23.3 5.8 6.2 43 19.7 78.7 33 114.5 3 3.5 11.7 1.3 13.6 5.9 10.4 38.2 22.7 74.4 35 110.7 3.3-31.3-10.9-71.9-13.6-97.1 6.6-5.7 12.3 2.1 17.5 3.9-11.4-30-16.1-62.7-25.3-93.3-8.9-29.5-27.8-55.1-29.1-83.5 12.5-6.1 24.6 3.5 34.9 5.9-8.3-39.1-20.8-76-34.9-110.7-14.2-34.9-30.7-71-27.2-110.7 9.7-4.8 18.7 1.7 31.1 0-11.2-34.2-16.2-78.4-29.2-116.5-9.3-27.6-24.1-48.7-33-75.7 12.9-8.7 35.2-1 48.6 1.9-11-49.1-34.2-104.3-56.4-151.5-6.8-14.5-20.1-33.6-9.7-48.5 15.5-1.8 18.2 9 35 5.8-9.6-66.9-53.5-136.7-48.5-211.6 19.2 2 29.2 13.4 46.6 17.4-11.1-32.1-12.7-70.6-17.5-106.8-4.2-30.7-20.2-55.8-19.4-81.5 15.4-6.6 30.7 2.6 40.7 7.8-13.1-56.3-52.6-106.4-48.5-167.1 21.8 4.1 25.7 26.1 46.6 31.1 0.6-67.9-31.7-119.8-42.7-182.5 16.3-14.7 43.6 0.4 56.3 7.8-1.9-65.5-42.3-112.9-33-176.74 21 3.61 27 22.14 52.4 21.36 5.7-37.59-10.7-62.98-21.3-108.74-5.6-23.92-27.1-72.16-7.8-77.67 19.7-5.61 24.3 23.99 42.7 25.23-11.2-43.33-30.5-115.57-19.4-174.75 16.3 3.79 22.7 17.37 34.9 25.23-2.4-51.88-1.9-104.27 0-145.63 24.6 3.31 26.7 29.02 46.6 36.89-3.3-51.73-21.6-106.62 0-151.45 7.7-5.76 14.8 2.51 19.5 5.82-1-43.31-15.2-93.22-7.8-132.03 5.8-5.31 11.6 1.34 17.5 1.92 3.1-78.73 10.2-169.85 21.3-240.77 1.7-10.39-3.3-26.875 9.7-31.07 11.8 11.906 13.4 34.332 15.6 52.41 6.9 58.38 6.2 134.51 5.8 203.91 1.5 3.84 10.9-6.53 15.5 0 1.4 41.36-3.7 97.23-1.9 139.81 4.8 4.05 6.7-11.38 17.5-7.76 12.9 38.08 4 101.51 0 141.74 15.3-4.76 14.5-25.59 34.9-25.23 2 40.88 2.5 92.48 0 143.68 10.2-1.47 18.9-21.17 35-23.29 9.4 59.47-4.8 128.39-21.4 174.76 20.6 0.38 24.1-31.1 44.7-25.26 20 5.71-0.9 44.5-7.8 71.85-7.2 28.9-17.2 60.43-21.3 75.75-2.3 8.27-2.1 29.25-2 38.81 26.9 1.62 32.9-17.55 54.4-21.34 9.2 63.16-30.4 110.66-33 174.76 10.2-1.3 40-22.5 56.3-5.8-12.4 63.3-40 111.4-44.7 182.5 23-3.5 26.2-26.9 48.6-31.1 4.2 58.3-33.5 108.8-48.6 165.1 7.7 0.9 25.3-14.4 40.8-5.8 1.4 25.1-15.3 50.1-19.4 79.6-5.2 36.6-5.2 75.1-17.5 106.8 14.6 1.6 27.8-14.9 46.6-15.6 3.5 75.5-35.5 141.9-50.5 211.7 17.6 3.3 21.2-7.3 36.9-5.8 13.1 15.9-5 32.5-11.6 46.6-21.8 46.4-38.4 102.6-56.3 153.4 14.8-2 36.6-11 50.4-2-8.9 27-23.6 48.2-33 75.8-12.6 37.2-16.9 78.5-29.1 114.5 8.6 6.4 22.2-4.1 31.1 2 3.7 39.5-13.1 76-27.2 110.7-14 34.4-25.9 70.7-35 108.7 7.7 3.4 22.7-11.8 35-3.9-1.4 28.3-20.3 54-29.1 83.5-9.1 30.2-13.2 62.5-25.3 91.3 2.9 4.4 11-9.5 17.5-2-3.9 26-14 62.3-15.6 97.1 15.8-33.5 25.5-72.9 37-110.7 3.2-2.5 6.5-5.1 13.5-3.8 12.3-37.6 27.1-72.6 33-116.5 5.7-2.4 14.6-8.9 21.4-3.9 17.9-48.8 24.8-108.5 25.3-174.8 6.1-3.8 17.6 1 23.2 3.9 13-48.5 1.7-122.9 11.7-168.9 18-1.8 21.3 11.1 33 15.5 5.7-60.2-6.9-128.3 3.9-180.6 17.6 3.8 24.9 17.8 36.9 27.2 15.7-43.2 5.1-112.7 17.5-159.2 16.5-0.4 21.4 10.9 31 17.4-2.2-58.8 0.4-123.6 9.7-176.7 14.3-1.2 16.7 9.3 25.3 13.6 13.1-39.3 7.3-97.5 29.1-128.1 10-3.6 22.6 5.5 31.1 9.7 6-54.2 4.8-115.6 27.2-153.4 12-2.4 10.1 9.3 19.4 9.7 8.3-48 17.5-95.2 40.8-128.2 15.4 5.3 22.5 18.9 34.9 27.2-1.4-59.3 4-127.9 27.2-168.9 16.2 1.9 17.6 18.6 31.1 23.3 4.8-53.5 6.5-110 31-143.7 16.5 1.6 18.5 17.8 29.2 25.2 6.3-55.12 5.8-117.17 33-151.45 13.8 1.06 17.9 11.86 25.2 19.42 13-36.19 11.9-86.47 33-114.56 13.2 1.69 15.5 14.36 25.3 19.42 13.7-36.16 19.1-80.55 38.8-110.69 7-1.14 9.4 2.25 13.6 3.89 5.5-13.98 7.3-31.55 15.5-42.73 3.7-3.79 7.1-0.6 11.7 0 18.1-38.96 37.3-77.87 60.2-114.55 6.5-10.5 13.9-27.13 29.1-27.21 5.5 26.6-7.7 54.54-15.5 81.56-7.9 27.29-12 56.49-21.4 81.57 0.2 7.58 13.4 2.17 13.6 9.7 0.6 25.16-12.1 37.07-11.6 62.15 3.6 4.12 15.5 0.03 17.5 5.82-7.9 31.62-24 55.04-35 83.51 7.7 3.94 22.2 1.03 27.2 7.76-3.4 25.48-18.1 45.73-27.2 67.96-9.2 22.35-15.6 46.01-29.1 66.01 20.7-2.05 33-22.4 56.3-15.52-10.6 52.24-41.2 101.14-62.2 149.54 10 2.2 24.5-7.9 40.8-5.9-1 17.1-9.8 34.9-17.5 50.5-12.1 24.7-30.7 48.4-42.7 71.9 10.8-0.7 22.8-8.9 33-3.9 2.2 32.7-23.7 55.9-36.9 81.5-14 27.4-24.6 56-40.7 81.6 11.2 7.6 37.3 0.3 42.7 13.6-27.9 49.2-74.1 80-99.1 132 14.3 4.5 37.1 0.5 48.6 7.8-8.5 30.8-34.1 50-52.4 71.9-18.9 22.4-33.6 47.1-50.5 71.8 14.8 0.1 31.2-1.5 38.8 5.8-7.9 30.4-29.7 54-46.6 77.7-16.7 23.5-32.1 51.2-58.2 66 5-25.9 26.7-46.1 42.7-67.9 15.8-21.7 29.9-45.9 46.6-66.1-11.8-6.4-30.3 3-40.8-1.9 4.6-30.4 27.5-53.8 44.6-77.7 17.5-24.2 39.9-44.4 56.4-67.9-12.2-7.3-38.1-0.8-44.7-13.6 18.7-57 64.9-86.6 95.2-132.1-11.3-4.3-29.4-1.7-38.9-7.7 6.2-37.6 27.5-61.6 42.7-93.3 10.8-22.3 24.3-42.8 35-66-10.8-4.1-33 12.9-42.7 3.9 15.7-32.5 40-60.2 56.3-93.2 4.6-9.3 3.6-21.4 11.6-29.1-13.4-0.7-24 10.4-36.9 3.9-4.3-16.9 6.9-32.9 13.6-46.6 15.9-32.5 32.2-65 44.7-101.02-14.7 0.13-37.2 24.91-54.4 11.66 20-44.73 35.8-93.65 58.3-135.92-7.8-3.9-22.7-0.59-27.2-7.79 3.7-33.22 21.5-52.21 31.1-79.59-2.1-7.05-11.4-6.75-13.6-13.6-1.3-23.97 7-38.23 11.6-56.31-32.5-25.96 19.3-104.69 19.5-147.57-24.8 30.96-47.7 80.5-66.1 124.26-3.7 3.85-9.2 0.94-13.6 0-3.1 16.99-7.6 32.54-15.5 44.65-9.1 2.02-9.8-4.45-13.6-7.76-12.8 36.35-21.2 77.16-34.9 112.64-13.2 4.29-18.8-14.65-29.2-19.42-11.7 34.91-16.5 76.65-25.2 114.55-15.6 4.33-21.5-15.39-33-21.36-19.6 40.63-17 103.48-25.3 155.38-20.6-0.8-24.1-18.7-36.9-27.2-9.8 27.2-17.7 64.4-19.4 101-0.7 14.2 3.8 31.8-5.8 42.7-19-1.1-23.5-16.7-36.9-23.3-7.9 29.2-15 68.2-19.4 102.9-2.6 20.7 6.7 40.5-3.9 56.3-23.3 3.2-26.2-13.9-38.9-21.4-18.3 38.7-28.5 85.4-34.9 136-14.7 1.1-16.1-11.1-25.2-15.6-15.5 42.2-11.9 103.4-21.4 151.5-16.8 2.6-19.1-9.4-31.1-11.6-20.5 29.2-17.2 90.5-23.3 128.1-13.7 6.4-23.5-3.9-31-9.7-10 53.5 0 126.9-9.8 180.6-17.1 0.3-20.5-13.1-31-19.4 0.2 60.2-2.3 126.5-19.4 163.1-15.6-0.2-21.7-26.1-38.9-31.1 1.1 54.2 9.6 120.8 0 172.8-2.2-0.3-3.4 0.5-3.9 2-17.3 1.8-20.2-10.9-31-15.5 2.9 61.9 3.4 127.5-11.7 176.6-12 0.4-10.9-12.4-21.3-13.5 7.1 68.5-9.3 123.5-25.3 174.7-6.9 3.8-11.2 0-19.4 0-6.8 46.3-22.6 83.6-36.9 122.4-7.3 0.1-5.5 2.1-11.6 0-35.4 99.9-52.8 217.8-95.2 310.6 31-9.5 45.7-36 66-58.2 58.5-63.8 129.2-125.1 172.9-202 3.4-3.2-1.8-6.5 0-13.5 44.5-45.5 67.5-112.4 106.7-163.2-4.6-3.7-12.5-4.2-15.5-9.7 19.9-50.6 46.2-94.9 85.5-126.2-12.1-0.8-29.1 3.2-33.1-5.8 4-16.1 16.5-30.1 27.2-42.7 31.3-37.2 67.4-77.2 99.1-116.5-10.4-7.2-33.8-1.2-38.9-13.6 3.1-16.4 19.2-24.2 29.2-35 28.9-31.3 54.3-69.3 87.3-99-6.6-5-25 1.7-29.1-5.8 8.7-30.7 33.8-52.1 52.4-73.8 19.7-23 33.8-49.6 56.3-70-12.7-2.8-37.3 6.3-40.7-5.8 5.3-14.9 48.5-7.7 60.2-3.9 0.1 15.8-9.9 21.3-19.5 27.2-27.7 40.9-59.9 77.3-91.2 114.6 11.1 4.4 26.4 4.6 31 15.5-3.2 12.4-15.4 15.6-23.3 23.3-34.1 33.8-60.3 75.7-95.1 108.8 13.2 2.9 29.5 2.8 38.8 9.7-3.7 18.1-19.4 28-31 40.8-33.5 36.5-62.3 80.7-97.1 118.4 13.7 0.5 30.4-2 38.8 3.9-1 20.2-21.5 25.8-33 36.9-26.7 25.7-39 59.5-60.2 91.3 2.7 6.3 14.1 4 15.5 11.6-11.6 31.1-34 51.4-46.6 81.6 11.1-2.6 20.3-23.7 33-31.1 8.2-1.6 9.2 3.8 15.6 3.9 21-36.6 31.3-83.9 54.4-118.5 5.5-5 11.4 1.5 15.5 3.9 24.2-67.7 55.4-128.3 101-174.8 12 2.2 9.8 18.7 17.4 25.3 10.4-24.6 20.8-51.6 31.1-77.7 9.9-25.1 19-53.9 40.8-67.9 10.7 3.4 9.9 18.5 17.5 25.2 22-35.5 43.9-71.1 69.9-102.9 14-17.2 30.5-37.3 50.5-48.6 4.7 4.3 7.9 10.2 9.7 17.5 36-31.3 48.4-86.2 87.3-114.6 6.9 4.9 10.5 12.9 11.7 23.4 23.1-31.9 38.5-71.6 68-97.1 11.1 3.7 11.9 17.8 13.6 31 11.4-18 25.9-35.1 40.7-52.4 13.7-16 25-39.6 46.6-42.7 8.8 2.2 8.8 13.3 9.7 23.3 11.9-22 32.8-37.7 52.5-54.4 9.7-8.3 18.8-23.1 33-19.4 9.1 2.5 5.4 17.9 7.7 27.2 23.8-17.7 41.3-58.4 71.9-75.8 8.9 0.2 8.1 10.1 9.7 17.5 15.5-14.2 27-32.6 42.7-46.6 15.3-13.6 29.5-29.6 48.6-38.8 6.3 3.4 6.2 13.2 7.7 21.4 27.2-18.2 49.7-57.9 85.5-73.8 5.4 3.6 3.7 14.4 3.9 23.3 59.7-31.1 107.9-75.2 166.9-110.7 18-10.8 38.5-24.4 60.2-27.2-3.6 18.1-17.4 33-29.1 44.7-48.4 48.4-96.2 95-135.9 151.4 1.3 7.8 13.9 4.3 13.6 13.6 1.1 12.3-11.6 20.9-19.4 27.2-25.7 20.5-57.9 38.4-81.6 64.1 9 5.8 29.4 0.4 35 9.7 1.3 15.2-17.6 17.5-27.2 23.3-31.1 18.9-64.2 47.1-91.3 71.8 9.8 5.1 23.6 6.2 31.1 13.6-8.1 24.8-38.2 34.9-60.2 50.5-22.4 15.9-45.2 32.3-68 44.7 13.7 10.3 45.4 2.5 54.4 17.4 2.9 18.5-19.1 21.2-29.1 27.2-32.6 19.5-65.5 44.5-97.1 66.1 27.4 0.4 47.6 8 62.1 21.3-20.5 25.2-50.7 38-75.7 58.3-24.3 19.6-49.1 39.5-75.8 56.3 9.6 4.7 27.6 1 31.1 11.6-12.6 25.6-42.5 36.5-66 50.5-23.7 14.1-45.6 32.6-69.9 44.7 8.1 9.3 30.2 4.7 33 19.4-41.1 30.8-93.8 49.9-145.6 69.9 9 3.9 21.8 4.1 25.2 13.6-34.7 40.3-94.5 58.5-147.6 81.6 7.3 4.3 18.9 4.4 21.4 13.5-7 15.4-25.3 19.8-38.8 27.2-40 22.1-81.7 49.8-122.4 73.8 1.2 8 12.4 5.7 11.7 15.6-21.4 22.7-53.7 31.6-83.5 44.6-29.4 12.9-59.3 28.2-89.3 38.9 5.1 6.3 22.1 8.6 21.3 21.3-0.9 14.3-71.9 33.9-85.4 38.8-37.1 13.8-63.4 27.6-89.3 35 6.8 10.6 24.4 10.5 29.1 23.3-12.1 20.3-37 27.7-60.2 36.9 0.1 4.8 10.4 15.1 1.9 25.2" fill="inherit"/>
 </g>
</svg>